<svg width="40" height="40" viewBox="0 0 40 40" xmlns="http://www.w3.org/2000/svg">
    <defs>
        <linearGradient id="grad" x1="0%" y1="0%" x2="100%" y2="100%">
            <stop offset="0%" style="stop-color:#4a90e2;stop-opacity:1" />
            <stop offset="100%" style="stop-color:#357abd;stop-opacity:1" />
        </linearGradient>
    </defs>
    <rect width="40" height="40" rx="20" fill="url(#grad)"/>
    <path d="M20 10c-5.5 0-10 4.5-10 10s4.5 10 10 10 10-4.5 10-10-4.5-10-10-10zm0 2c4.4 0 8 3.6 8 8s-3.6 8-8 8-8-3.6-8-8 3.6-8 8-8zm0 2c-2.2 0-4 1.8-4 4h2c0-1.1.9-2 2-2s2 .9 2 2h2c0-2.2-1.8-4-4-4zm-4 6v2h8v-2h-8z" fill="white"/>
</svg>
